<svg xmlns="http://www.w3.org/2000/svg" viewBox="0 0 349.63 352.81"><defs><style>.a{fill:#57b168;}.b{fill:#726456;}.c{fill:#232222;opacity:0.21;}.d{fill:#685644;stroke:#82e8d9;stroke-miterlimit:10;stroke-width:6px;}.e{fill:#354229;}.f{fill:#86af5a;}.g{fill:#79c98d;}.h{fill:#57a3d1;}.i{fill:#477a59;}.j{fill:#608c50;}.k{fill:#3e5e3b;}.l{fill:#ffc057;}.m{fill:#97d296;}.n{fill:#f2e7e3;}.o{fill:#e3b69c;}</style></defs><title>monty-db-v1</title><path class="a" d="M608.11,334l6-57.7a36.22,36.22,0,0,0-2.54-17.57l-33.06-80.22a36.48,36.48,0,0,0-7.29-11.22A178.18,178.18,0,0,0,442.1,112a36.91,36.91,0,0,0-6.67.62l-40.37,7.53a36.22,36.22,0,0,0-9,2.93l-37.83,18.09a36.22,36.22,0,0,0-9.53,6.61l-32.58,31.44a36.22,36.22,0,0,0-6.17,7.87L276.8,226.92a36.78,36.78,0,0,0-3.09,6.87,176.42,176.42,0,0,0-9,53.27c0,1.15,0,2.29.13,3.43L269,341.06a36.22,36.22,0,0,0,6,17.2l27,40.24c.57.85,1.17,1.67,1.8,2.47A176.35,176.35,0,0,0,329,426.48c.77.64,1.57,1.23,2.38,1.8l19.3,13.44c.78.54,1.57,1.05,2.39,1.53q2.21,1.29,4.47,2.53a177.54,177.54,0,0,0,50.73,18.31,36.31,36.31,0,0,0,13.7,0l82.8-15.6a36.22,36.22,0,0,0,13.61-5.61l30.71-20.8a36.22,36.22,0,0,0,9.37-9.23L601.77,351A36.22,36.22,0,0,0,608.11,334Z" transform="translate(-264.71 -111.96)"/><path class="b" d="M346.86,149.51l-38.09,37.28a33.23,33.23,0,0,0-8.51,14L276.59,278a34.6,34.6,0,0,0-1.43,12.43A171.76,171.76,0,0,0,334,408.66a34.79,34.79,0,0,0,5.08,3.64l33,19.34a33.54,33.54,0,0,0,8.07,3.41l37.35,10.29a32.81,32.81,0,0,0,10.61,1.13l41.46-2.4a32.33,32.33,0,0,0,9-1.82l39.75-14.14a32.76,32.76,0,0,0,6.22-3,158.51,158.51,0,0,0,37.59-32.33c.68-.8,1.32-1.65,1.92-2.52l26.69-38.46a33.75,33.75,0,0,0,5.83-15.9l4.5-45.09c.09-.95.16-1.9.17-2.85a169.26,169.26,0,0,0-2.81-33.48c-.17-.92-.38-1.83-.63-2.74L592,230.42c-.23-.86-.49-1.71-.79-2.54-.54-1.51-1.09-3-1.68-4.53a171.21,171.21,0,0,0-25.12-44,34.45,34.45,0,0,0-9.66-8.41l-67.68-39.55A33.34,33.34,0,0,0,474.16,127l-33.9-4a32.49,32.49,0,0,0-12,.82l-66.92,17.48A32.33,32.33,0,0,0,346.86,149.51Z" transform="translate(-264.71 -111.96)"/><path class="c" d="M562.08,392.79c.68-.8,1.32-1.65,1.92-2.52l26.69-38.46a33.75,33.75,0,0,0,5.83-15.9l4.5-45.09c.09-.95.16-1.9.17-2.85a169.26,169.26,0,0,0-2.48-31.56L458.37,138.79,410.91,429.12l30.4,16.59,28.24-1.64a32.33,32.33,0,0,0,9-1.82l39.75-14.14a32.76,32.76,0,0,0,6.22-3A158.51,158.51,0,0,0,562.08,392.79Z" transform="translate(-264.71 -111.96)"/><path class="d" d="M416.23,172.26c-2.21,2.29-33.63,49-33.63,49-.13.18-2.89,9.28-2.95,9.49l-22.58,87.39a51.45,51.45,0,0,0,2,7.53l47.13,69.06a43.12,43.12,0,0,1,1.64,4.91l-.67,23.8a1.67,1.67,0,0,0,1,1.54l4.06,1.69c1.09.46,6.94-5.91,7-7.06l1-21.93c0-.39-.6-4.3-.33-4.58l67.43-63.17c.28-.29.67-7.5.69-7.9l5.86-113.34a15.62,15.62,0,0,0-1.75-6.45l-34.67-61.39a1.76,1.76,0,0,0-2.53-.51l-28,22.33C422.86,164.56,418.44,170,416.23,172.26Z" transform="translate(-264.71 -111.96)"/><path class="e" d="M413.87,170.27c-2.24,2.33-34.09,49.86-34.09,49.86-.13.18-2.93,9.44-3,9.66l-22.89,88.9a52.49,52.49,0,0,0,2,7.66l47.77,70.25a44,44,0,0,1,1.66,5l-.68,24.21a1.7,1.7,0,0,0,1.06,1.57l4.12,1.72c1.11.46,7-6,7.11-7.19l1-22.31c0-.4-.61-4.37-.33-4.66l68.34-64.26c.29-.29.68-7.63.7-8l5.94-115.29a15.93,15.93,0,0,0-1.77-6.57l-35.14-62.44a1.78,1.78,0,0,0-2.57-.52l-28.36,22.71C420.59,162.45,416.11,167.94,413.87,170.27Z" transform="translate(-264.71 -111.96)"/><path class="f" d="M422.77,167.61l-41.89,58.45a1.61,1.61,0,0,0-.26.57l-22.35,95.22a1.61,1.61,0,0,0,.24,1.28L407.9,394.8a1.61,1.61,0,0,1,.28.92v22a1.61,1.61,0,0,0,1,1.48l3.8,1.63a1.61,1.61,0,0,0,2.25-1.38L417,391.86a1.61,1.61,0,0,1,.44-1l66-69.84a1.61,1.61,0,0,0,.44-1l5.48-109.2a15.39,15.39,0,0,0-1.64-6.22l-32.42-59.14a1.61,1.61,0,0,0-2.37-.49l-29.76,22.32A1.61,1.61,0,0,0,422.77,167.61Z" transform="translate(-264.71 -111.96)"/><path class="g" d="M420.1,246.25l-38.43-18.88a1.61,1.61,0,0,1-.6-2.39l41-57.16a1.61,1.61,0,0,1,.34-.35l31.24-23.33c1.25-.94,1,1.67.55,3.16l-31.82,98A1.61,1.61,0,0,1,420.1,246.25Z" transform="translate(-264.71 -111.96)"/><path class="h" d="M421.28,248.7l-58.73,74a1.61,1.61,0,0,1-1.51.59l-1.21-.19a1.61,1.61,0,0,1-1.32-2l21.72-92.56a1.61,1.61,0,0,1,2.28-1.08l38.22,18.78A1.61,1.61,0,0,1,421.28,248.7Z" transform="translate(-264.71 -111.96)"/><path class="i" d="M421.41,254.63l4.37,95.94a1.61,1.61,0,0,1-.09.62l-14.43,40.47a1.61,1.61,0,0,1-2,1L407,392a1.61,1.61,0,0,1-.88-.66l-43.56-66.93a1.61,1.61,0,0,1,.1-1.9l55.83-68.79A1.61,1.61,0,0,1,421.41,254.63Z" transform="translate(-264.71 -111.96)"/><path class="j" d="M425.16,249.35,481.55,320a1.61,1.61,0,0,1-.09,2.12l-66,69.18a1.61,1.61,0,0,1-1.17.5h0a1.61,1.61,0,0,1-1.53-2.13L426,350.85a1.61,1.61,0,0,0,.08-.6l-4.85-99a1.61,1.61,0,0,1,.62-1.35l1-.8A1.61,1.61,0,0,1,425.16,249.35Z" transform="translate(-264.71 -111.96)"/><polygon class="k" points="161.41 238.6 216.4 210.45 150.29 279.84 147.34 279.84 161.41 238.6"/><path class="l" d="M430.24,241.79l57.08-34.12a1.61,1.61,0,0,0,.59-2.16L454.82,144c-.7-1.27-1.16,2.51-1.55,3.91l-25.42,92A1.61,1.61,0,0,0,430.24,241.79Z" transform="translate(-264.71 -111.96)"/><path class="m" d="M453.84,146.21,430,222.31l-1,1.51-18.9,15.24-2.13.11-9.33-3.49,7.91,6.38.61,1.81L401.25,273l-39.5,50.62,41.63-48.39,15.48,16.15,5.08,25,1.75-26.84,15-14.23,14.88,13.13-12.91-18.81L446,234.58l6.24-5a.68.68,0,0,0-.7-1.15l-6.77,3-10.85-7-.6-1.31Z" transform="translate(-264.71 -111.96)"/><path class="n" d="M435.76,225.89l6.59,7.7a.38.38,0,0,1,.12.31l-2.6,35.69a.38.38,0,0,1-.09.22L422,289.89a.38.38,0,0,0-.09.28l1.65,21a.38.38,0,0,0,.75,0l1.4-21.48a.38.38,0,0,1,.12-.25l14.66-13.89a.38.38,0,0,1,.51,0l12.34,10.9a.38.38,0,0,0,.56-.49l-11.12-16.2a.38.38,0,0,1-.06-.25l3.3-34.78a.36.36,0,0,1,.16-.26l8.65-6.8a.32.32,0,0,0-.33-.55l-9.56,4.23a.36.36,0,0,1-.23,0l-8.47-6.05A.38.38,0,0,0,435.76,225.89Z" transform="translate(-264.71 -111.96)"/><polygon class="o" points="221.64 160.15 217.28 209.58 154.54 275.37 151.7 279.62 216.73 219.18 220.11 208.92 221.64 160.15"/></svg>