<?xml version="1.0" encoding="utf-8"?>
<!-- Generator: Adobe Illustrator 21.0.0, SVG Export Plug-In . SVG Version: 6.00 Build 0)  -->
<svg version="1.1" id="Layer_6_copy_10" xmlns="http://www.w3.org/2000/svg" xmlns:xlink="http://www.w3.org/1999/xlink" x="0px"
	 y="0px" viewBox="0 0 121.7 128.5" style="enable-background:new 0 0 121.7 128.5;" xml:space="preserve">
<style type="text/css">
	.st0{fill:url(#SVGID_1_);}
	.st1{fill:url(#SVGID_2_);}
	.st2{fill:url(#SVGID_3_);}
	.st3{fill:url(#SVGID_4_);}
	.st4{fill:url(#SVGID_5_);}
</style>
<g id="full_x5F_logo_copy_13">
</g>
<g id="icon_x5F_ver_copy_13">
	<linearGradient id="SVGID_1_" gradientUnits="userSpaceOnUse" x1="60.5918" y1="122.6566" x2="60.5918" y2="20.8451">
		<stop  offset="0.373" style="stop-color:#271E35"/>
		<stop  offset="0.6322" style="stop-color:#291F36"/>
		<stop  offset="0.7256" style="stop-color:#302438"/>
		<stop  offset="0.7922" style="stop-color:#3B2D3D"/>
		<stop  offset="0.846" style="stop-color:#4C3A44"/>
		<stop  offset="0.8921" style="stop-color:#624A4D"/>
		<stop  offset="0.9329" style="stop-color:#7E5E58"/>
		<stop  offset="0.9689" style="stop-color:#9D7664"/>
		<stop  offset="1" style="stop-color:#BF8F72"/>
	</linearGradient>
	<path class="st0" d="M116,67.3c-2.6-26.9-18-46.4-52.3-46.4c-38.1,0-66.6,28.6-57.1,71.8c2.9,13.2,8.7,20.9,16.4,27.7
		c5.3,4.6,11.4-14.4,14.4-15.7c4.8-2.2,5.3,13.9,8.3,15.3c5.6,2.6,16.7,2.7,23.3,0c3.7-1.5,4.2-18,8.7-16
		c2.6,1.2,8.8,21.1,13.2,18.5C105.8,113.6,119,97.4,116,67.3z M59.4,101.3c-3.7,0.7-12,0.4-14.3-8.1c-2.1-8,3.2-14,10.5-14.7
		c7.3-0.7,12.8,3,12.8,11.2C68.4,98,63,100.7,59.4,101.3z"/>
	<linearGradient id="SVGID_2_" gradientUnits="userSpaceOnUse" x1="61.9577" y1="102.5466" x2="61.9577" y2="4.5291">
		<stop  offset="0" style="stop-color:#44BC6F"/>
		<stop  offset="0.6351" style="stop-color:#4C9DA0"/>
		<stop  offset="1" style="stop-color:#508EB7"/>
	</linearGradient>
	<path class="st1" d="M116.1,5c-4.1-1.7-16.9,1.5-27.2,5.4c-17.3,6.5-32.7,19.4-36.8,43.4c-0.2,1.4-2.2,1.6-2.6,0.2
		c-2.6-6.9-6-18.4-21.5-23.3c-17.6-5.6-23.8-1.3-21.3,2.9c2.1,3.6,0.1,13.1,6.2,23.5c4.8,8.1,9.2,15.9,19.1,21.9
		c6.5,3.9,9.9,7,11.6,9.9c0.6,1,0.7,2.5,0.9,3.5c0.5,2.2,0.8,5,2.8,6.5c9.8,7.3,16.9,1.6,18.8-0.8c9.6-12.7,25.1-14.1,39-36.1
		c10.7-17.1,11.8-25.4,11.8-43.7C116.9,10.9,119.4,6.4,116.1,5z"/>
</g>
</svg>