<?xml version="1.0" encoding="utf-8"?>
<!-- Generator: Adobe Illustrator 21.0.0, SVG Export Plug-In . SVG Version: 6.00 Build 0)  -->
<svg version="1.1" id="Layer_6_copy_10" xmlns="http://www.w3.org/2000/svg" xmlns:xlink="http://www.w3.org/1999/xlink" x="0px"
	 y="0px" viewBox="0 0 554.5 146.5" style="enable-background:new 0 0 554.5 146.5;" xml:space="preserve">
<style type="text/css">
	.st0{display:none;fill:#333747;}
	.st1{font-family:'BemioItalic';}
	.st2{font-size:157.3661px;}
	.st3{letter-spacing:-22.9;}
	.st4{fill:url(#SVGID_1_);}
	.st5{fill:url(#SVGID_2_);}
	.st6{fill:url(#SVGID_3_);}
	.st7{fill:url(#SVGID_4_);}
	.st8{fill:url(#SVGID_5_);}
</style>
<g id="full_x5F_logo_copy_13">
	<text transform="matrix(0.9168 0 0 1 344.0686 129.7164)" class="st0 st1 st2 st3">DB</text>
	<linearGradient id="SVGID_1_" gradientUnits="userSpaceOnUse" x1="461.0407" y1="131.8451" x2="461.0407" y2="21.3753">
		<stop  offset="0" style="stop-color:#271E35"/>
		<stop  offset="0.4135" style="stop-color:#291F36"/>
		<stop  offset="0.5624" style="stop-color:#302438"/>
		<stop  offset="0.6685" style="stop-color:#3B2D3D"/>
		<stop  offset="0.7544" style="stop-color:#4C3A44"/>
		<stop  offset="0.8279" style="stop-color:#624A4D"/>
		<stop  offset="0.893" style="stop-color:#7E5E58"/>
		<stop  offset="0.9504" style="stop-color:#9D7664"/>
		<stop  offset="1" style="stop-color:#BF8F72"/>
	</linearGradient>
	<path class="st4" d="M540.3,78.8c-2.3-1.7-2.3-5-0.1-6.9c5.6-4.7,9.9-11.9,9.9-22.3c0-22.8-24.1-28.3-46.7-28.3
		c-10.4,0-21.6,1.2-29.3,2.2c-1.9,0.3-3.5,1.8-3.7,3.7l-2.1,16.7c-8.5-14.7-25.2-22.7-46.9-22.7c-13.6,0-23.8,0.8-33.3,2.2
		c-1.6,0.2-2.9,1.5-3.1,3.2L372.1,126c-0.3,2,1.2,3.9,3.2,4.1c7.3,0.9,17.1,1.8,27.4,1.8c17.6,0,41.4-3.4,56.7-19.2l-1.6,12.7
		c-0.3,2.4,1.4,4.6,3.8,4.8c7.5,0.9,18,1.6,28,1.6c31.5,0,59.2-6.1,59.2-34.9C548.6,88,544.6,82.1,540.3,78.8z M415,101.8
		C415,101.8,415,101.8,415,101.8c-2.2,0-4-1.9-3.7-4.1l5.7-44c0.2-1.8,1.8-3.2,3.6-3.2c0.4,0,0.8,0,1.1,0c11,0,16.6,7.4,16.6,20
		C438.4,87,431.5,101.8,415,101.8z M500.4,104.9c-0.3,0-0.7,0-1.2,0c-2.6,0-4.6-2.3-4.3-4.9l1.4-10.7c0.3-2.1,2-3.7,4.1-3.8
		c0.8,0,1.6-0.1,2.1-0.1c5.3,0,12.8,1.1,12.8,8.5C515.4,102.9,506.5,104.9,500.4,104.9z M504.5,65.3
		C504.5,65.3,504.4,65.3,504.5,65.3c-2.6,0-4.6-2.3-4.3-4.8l1.1-9.3c0.3-2.1,2-3.7,4.1-3.8c0.8,0,1.5-0.1,2-0.1
		c4.6,0,10.2,1.6,10.2,7.6C517.6,63.5,510.2,65.3,504.5,65.3z"/>
	<linearGradient id="SVGID_2_" gradientUnits="userSpaceOnUse" x1="351.1452" y1="139.5422" x2="351.1452" y2="4.5777">
		<stop  offset="0" style="stop-color:#44BC6F"/>
		<stop  offset="0.217" style="stop-color:#46B678"/>
		<stop  offset="0.5748" style="stop-color:#4AA691"/>
		<stop  offset="1" style="stop-color:#508EB7"/>
	</linearGradient>
	<path class="st5" d="M405.3,5.1c-4.1-1.7-16.9,1.5-27.2,5.4c-17.3,6.5-32.7,19.4-36.8,43.4c-0.2,1.4-2.2,1.6-2.6,0.2
		c-2.6-6.9-6-18.4-21.5-23.3c-17.6-5.6-23.8-1.3-21.3,2.9c2.1,3.6,0.1,13.1,6.2,23.5c4.8,8.1,9.2,15.9,19.1,21.9
		C335,87.4,334.9,92,334,98.8c-0.9,7.3-2.9,14-20.6,29.8c-9.3,8.3,12.3,12.3,15.4,10.7c6.5-3.3,15.1-18,23.5-36
		c8.5-18,26.5-16.5,41.9-41.2c10.7-17.1,11.8-25.4,11.8-43.7C406.1,10.9,408.5,6.4,405.3,5.1z"/>
	<linearGradient id="SVGID_3_" gradientUnits="userSpaceOnUse" x1="158.645" y1="140.2374" x2="158.645" y2="19.6628">
		<stop  offset="0" style="stop-color:#271E35"/>
		<stop  offset="0.4135" style="stop-color:#291F36"/>
		<stop  offset="0.5624" style="stop-color:#302438"/>
		<stop  offset="0.6685" style="stop-color:#3B2D3D"/>
		<stop  offset="0.7544" style="stop-color:#4C3A44"/>
		<stop  offset="0.8279" style="stop-color:#624A4D"/>
		<stop  offset="0.893" style="stop-color:#7E5E58"/>
		<stop  offset="0.9504" style="stop-color:#9D7664"/>
		<stop  offset="1" style="stop-color:#BF8F72"/>
	</linearGradient>
	<path class="st6" d="M306.8,100.2c-5.8,1.4-14.3,5.4-14.6-0.4l0.9-13.7c0.1-1.3,1.2-2.3,2.8-2.5l12.9-1.5c1.6-0.2,2.8-1.3,2.8-2.6
		l-0.2-22.2c0-1.6-1.8-2.8-3.8-2.6L296,56.4c-2,0.3-3.8-1-3.8-2.6l0.2-8.2c0-1.6-1.8-2-3.7-2.6c-7.6-2.4-21.5-8.5-27.8-7.9
		c-1.6,0.2-2.9,1.3-2.8,2.6c0.1,4.8-0.1,15.5-0.2,19.8c-0.1,1.3-1.2,2.3-2.8,2.5l-8.2,0.9c0,0-0.1,0-0.1,0c-5.5-7.1-14-8.9-21.7-8.5
		c-2.6,0.1-6.9,0.4-10.9,2.1c-2.4,1.1-4.8,1.1-4.6-1.6l0.1-1c0.2-2,0.9-4.1-3.4-4.5c-4.3-0.4-17.3-0.1-17.3-0.1
		c-1.8,0-4.6,1.5-5.5,3.7c-0.5,1.2-1.4,3.9-2.3,7.6c-5.4-6.1-13.7-9.7-25.6-9.7c-11.3,0-20.9,3.9-27.3,10.9l-10.6-38
		c-0.3-1.2-1.5-2.1-2.8-2l-33.7,2.2C80,22,79,22.8,78.7,24l-5.3,22.2c-0.6,2.5-4.1,2.9-5.1,0.5l-9.9-21.5c-0.5-1-1.6-1.7-2.7-1.6
		L26,26c-1.2,0.1-2.2,1-2.5,2.2C21,41.3,6.7,114.6,5.8,136.1c-0.1,1.5,1.1,2.8,2.6,2.9l36.2,1.3c1.5,0.1,2.7-1.1,2.8-2.5l1.9-23.2
		c0.3-3,4.6-3.4,5.4-0.5l3.4,12.5c0.4,1.3,1.6,2.2,3,2l28.9-3.6c1.3-0.2,2.3-1.2,2.4-2.4l2.4-22.7c0.3-3,4.5-3.4,5.3-0.5l10.4,33.7
		c0.5,1.5,2,2.3,3.5,1.8l29.8-9.8c1.4-0.5,2.2-1.9,1.8-3.3l-1.3-4.6c6.7,1.8,13.9,1.9,20.4,0.7c4-0.8,8.1-2.3,11.8-4.9
		c0.1,4.9,0.2,8.1,0.2,8.1c-0.1,2.2,1.6,3.9,3.7,3.7l26.8-2.7c1.7-0.2,2.8-1.1,2.9-2.8c0.2-4.6-0.2-6.1-0.3-10.5
		c-0.2-5.7,0.7-14.5,6.2-14c7.4,0.7,6.1,6.8,4.5,14.4c-1.3,6.5-2.6,7.8-2.7,10.7c-0.1,1.7,1.1,3.3,2.8,3.5l22,2.3
		c1.8,0.3,3.2-1,3.9-2.7c2.5-6,4.9-17.2,5.8-33.1l0.8-0.1c2-0.3,3.9,1,3.8,2.7c-0.2,3.1-1,8.1-1.7,19.4c-0.9,14.4,14.2,19.6,20.8,20
		c14.5,0.8,22.4-2.9,26.7-4.4c1-0.3,1.7-1.1,1.9-1.9l6.3-22.1C311.3,101.3,309.1,99.7,306.8,100.2z M159.1,91.9
		c-1.9,0.3-6.2,0.2-7.4-3.9c-1.1-3.8,1.7-6.7,5.4-7c3.8-0.3,6.6,1.4,6.6,5.4C163.7,90.3,161,91.6,159.1,91.9z"/>
</g>
<g id="icon_x5F_ver_copy_13">
</g>
</svg>