<svg xmlns="http://www.w3.org/2000/svg" viewBox="0 0 545.27 204.46"><defs><style>.a{fill:#57b168;}.b{fill:#726456;}.c{fill:#232222;opacity:0.21;}.d{fill:#685644;stroke:#82e8d9;stroke-miterlimit:10;stroke-width:6px;}.e{fill:#354229;}.f{fill:#86af5a;}.g{fill:#79c98d;}.h{fill:#57a3d1;}.i{fill:#477a59;}.j{fill:#608c50;}.k{fill:#3e5e3b;}.l{fill:#ffc057;}.m{fill:#97d296;}.n{fill:#f2e7e3;}.o{fill:#e3b69c;}.p{fill:#3a3a3a;}.q{fill:#9b9b9b;}</style></defs><title>monty-db-v1</title><path class="a" d="M348.23,327.48l3.5-33.44a21,21,0,0,0-1.47-10.18L331.1,237.37a21.14,21.14,0,0,0-4.23-6.5A103.26,103.26,0,0,0,252,198.81a21.39,21.39,0,0,0-3.87.36l-23.4,4.36a21,21,0,0,0-5.21,1.7l-21.93,10.49a21,21,0,0,0-5.52,3.83l-18.88,18.22a21,21,0,0,0-3.57,4.56l-13.42,23.1a21.31,21.31,0,0,0-1.79,4,102.24,102.24,0,0,0-5.21,30.87c0,.66,0,1.33.07,2l2.42,29.3a21,21,0,0,0,3.49,10l15.65,23.32c.33.49.68,1,1,1.43a102.2,102.2,0,0,0,14.57,14.79c.44.37.91.72,1.38,1L199,389.92c.45.31.91.61,1.38.89q1.28.75,2.59,1.47a102.89,102.89,0,0,0,29.4,10.61,21,21,0,0,0,7.94,0l48-9a21,21,0,0,0,7.89-3.25L314,378.56a21,21,0,0,0,5.43-5.35l25.1-35.89A21,21,0,0,0,348.23,327.48Z" transform="translate(-149.22 -198.81)"/><path class="b" d="M196.82,220.57l-22.08,21.6a19.26,19.26,0,0,0-4.93,8.13L156.1,295a20.05,20.05,0,0,0-.83,7.2,99.54,99.54,0,0,0,34.11,68.53,20.16,20.16,0,0,0,2.94,2.11l19.1,11.21a19.44,19.44,0,0,0,4.68,2l21.65,6a19,19,0,0,0,6.15.65l24-1.39a18.74,18.74,0,0,0,5.2-1.05l23-8.2a19,19,0,0,0,3.6-1.73,91.86,91.86,0,0,0,21.78-18.73c.4-.47.77-1,1.12-1.46l15.47-22.29a19.56,19.56,0,0,0,3.38-9.21l2.61-26.13c.05-.55.09-1.1.1-1.65a98.09,98.09,0,0,0-1.63-19.4c-.1-.53-.22-1.06-.36-1.59l-3.34-12.37c-.13-.5-.29-1-.46-1.47-.31-.88-.63-1.75-1-2.63a99.22,99.22,0,0,0-14.56-25.51,20,20,0,0,0-5.6-4.88l-39.22-22.92a19.32,19.32,0,0,0-7.48-2.52L251,205.22a18.83,18.83,0,0,0-7,.48L205.2,215.83A18.74,18.74,0,0,0,196.82,220.57Z" transform="translate(-149.22 -198.81)"/><path class="c" d="M321.55,361.56c.4-.47.77-1,1.12-1.46l15.47-22.29a19.56,19.56,0,0,0,3.38-9.21l2.61-26.13c.05-.55.09-1.1.1-1.65a98.09,98.09,0,0,0-1.43-18.29l-81.33-68.17L233.94,382.61l17.62,9.61,16.37-.95a18.74,18.74,0,0,0,5.2-1.05l23-8.2a19,19,0,0,0,3.6-1.73A91.86,91.86,0,0,0,321.55,361.56Z" transform="translate(-149.22 -198.81)"/><path class="d" d="M237,233.75c-1.28,1.33-19.49,28.41-19.49,28.41s-1.68,5.38-1.71,5.5L202.74,318.3a29.82,29.82,0,0,0,1.14,4.36l27.32,40a25,25,0,0,1,.95,2.85l-.39,13.79a1,1,0,0,0,.61.89l2.35,1c.63.26,4-3.43,4.07-4.09l.57-12.71a16.86,16.86,0,0,1-.19-2.66l39.08-36.61a45.21,45.21,0,0,0,.4-4.58L282,254.87a9.05,9.05,0,0,0-1-3.74l-20.09-35.58a1,1,0,0,0-1.47-.29L243.24,228.2C240.87,229.29,238.31,232.42,237,233.75Z" transform="translate(-149.22 -198.81)"/><path class="e" d="M235.66,232.6c-1.3,1.35-19.75,28.9-19.75,28.9s-1.7,5.47-1.73,5.6l-13.27,51.52a30.42,30.42,0,0,0,1.15,4.44l27.68,40.71a25.49,25.49,0,0,1,1,2.89l-.39,14a1,1,0,0,0,.61.91l2.39,1c.64.27,4.08-3.48,4.12-4.16L238,365.5a17.21,17.21,0,0,1-.19-2.7l39.6-37.24a46.15,46.15,0,0,0,.4-4.66l3.44-66.81a9.23,9.23,0,0,0-1-3.81l-20.37-36.19a1,1,0,0,0-1.49-.3L242,227C239.55,228.07,237,231.25,235.66,232.6Z" transform="translate(-149.22 -198.81)"/><path class="f" d="M240.82,231.06l-24.28,33.87a.93.93,0,0,0-.15.33l-13,55.18a.93.93,0,0,0,.14.74l28.62,41.53a.93.93,0,0,1,.17.53V376a.93.93,0,0,0,.57.86l2.2.94a.93.93,0,0,0,1.3-.8l1-16a.93.93,0,0,1,.25-.58L275.95,320a.93.93,0,0,0,.25-.59l3.17-63.28a8.92,8.92,0,0,0-.95-3.6L259.64,218.2a.93.93,0,0,0-1.37-.28L241,230.86A.93.93,0,0,0,240.82,231.06Z" transform="translate(-149.22 -198.81)"/><path class="g" d="M239.27,276.63,217,265.69a.93.93,0,0,1-.35-1.38l23.74-33.13a.93.93,0,0,1,.2-.2l18.11-13.52c.72-.54.58,1,.32,1.83l-18.44,56.78A.93.93,0,0,1,239.27,276.63Z" transform="translate(-149.22 -198.81)"/><path class="h" d="M240,278l-34,42.86a.93.93,0,0,1-.87.34l-.7-.11a.93.93,0,0,1-.77-1.14l12.59-53.64a.93.93,0,0,1,1.32-.63l22.15,10.88A.93.93,0,0,1,240,278Z" transform="translate(-149.22 -198.81)"/><path class="i" d="M240,281.49l2.54,55.6a.93.93,0,0,1-.05.36l-8.36,23.45a.93.93,0,0,1-1.16.58l-1.29-.4a.93.93,0,0,1-.51-.38L206,321.91a.93.93,0,0,1,.06-1.1l32.36-39.87A.93.93,0,0,1,240,281.49Z" transform="translate(-149.22 -198.81)"/><path class="j" d="M242.2,278.43l32.68,40.94a.93.93,0,0,1-.05,1.23l-38.24,40.09a.93.93,0,0,1-.68.29h0a.93.93,0,0,1-.88-1.24l7.68-22.49a.93.93,0,0,0,0-.35l-2.81-57.38a.93.93,0,0,1,.36-.78l.59-.46A.93.93,0,0,1,242.2,278.43Z" transform="translate(-149.22 -198.81)"/><polygon class="k" points="93.55 138.28 125.41 121.96 87.1 162.18 85.39 162.18 93.55 138.28"/><path class="l" d="M245.14,274l33.08-19.78a.93.93,0,0,0,.34-1.25l-19.17-35.63c-.4-.74-.67,1.45-.9,2.26L243.76,273A.93.93,0,0,0,245.14,274Z" transform="translate(-149.22 -198.81)"/><path class="m" d="M258.82,218.65,245,262.76l-.58.87-11,8.83-1.23.06-5.41-2,4.58,3.7.35,1.05-3.42,16.87-22.89,29.34,24.13-28,9,9.36,2.94,14.51,1-15.55,8.7-8.24,8.62,7.61-7.48-10.9,1.93-20.33L257.9,267a.39.39,0,0,0-.4-.67L253.57,268,247.28,264l-.35-.76Z" transform="translate(-149.22 -198.81)"/><path class="n" d="M248.35,264.83l3.82,4.46a.22.22,0,0,1,.07.18l-1.5,20.69a.22.22,0,0,1-.05.13l-10.32,11.64a.22.22,0,0,0-.05.16l1,12.19a.22.22,0,0,0,.43,0l.81-12.45a.22.22,0,0,1,.07-.14l8.5-8a.22.22,0,0,1,.29,0l7.15,6.32a.22.22,0,0,0,.32-.29l-6.44-9.39a.22.22,0,0,1,0-.14L254.27,270a.21.21,0,0,1,.09-.15l5-3.94a.19.19,0,0,0-.19-.32L253.64,268a.21.21,0,0,1-.13,0l-4.91-3.51A.22.22,0,0,0,248.35,264.83Z" transform="translate(-149.22 -198.81)"/><polygon class="o" points="128.45 92.81 125.92 121.46 89.56 159.59 87.92 162.05 125.6 127.02 127.56 121.08 128.45 92.81"/><path class="p" d="M412.52,276.14c0-.48,0-.8-1.44-1H400.53l1.12,79H390.94l.48-82.48c0-.48,0-.8-1.44-1l-9.27-.64a1.18,1.18,0,0,0-1.28,1.28l.48,82.8H367.76v-5.75l2.56-2.88-.16-84.4H391.1c4.48,0,7.19,1.92,8.63,4.64a87.54,87.54,0,0,1,12.47-.64c5.91,0,9.75,3.36,9.75,7.67l-.16,75.29,3.52,1.76v8.31H411.88Z" transform="translate(-149.22 -198.81)"/><path class="p" d="M436.49,347.43v-81.2l6.87-5.12h20l6.39,4.48v82.8l-10.07,5.75H445.93ZM457,344.08c1.44,0,1.44-.32,1.44-1l1.6-72.25c0-1,0-1.44-1.44-1.44h-9.91a1.34,1.34,0,0,0-1.44,1.44v72.25c0,.64,0,1,1.44,1Z" transform="translate(-149.22 -198.81)"/><path class="p" d="M484.77,270.7l-3.36-1.92v-7.67h28.45l6.39,4.48v88.56h-7.35c-2.24,0-4.16-3.52-4.16-3.52l1.76-78.49c0-1,0-1.44-1.44-1.44l-9.59.32-.16,83.12H484.77Z" transform="translate(-149.22 -198.81)"/><path class="p" d="M532.4,346.31l1.12-76.57h-6.87v-4.8l6.87-3.68,2.72-20.62h7.67v20.46h15.67v9.59h-16v71.93l9.11,2.88,1.6-13.27h5.59v21.9H539.28Z" transform="translate(-149.22 -198.81)"/><path class="p" d="M564.37,366.45l14.07-1.6.64-10.71h-5.75l-9.91-93h11L581,341.52h.64l6.55-80.41H598.9L588.35,349l-1.12,19.5c-.48,3.84-2.4,6.23-6.87,6.23h-16Z" transform="translate(-149.22 -198.81)"/><path class="q" d="M607.21,240.65h18.38c10.23,0,17.42,7.35,17.42,17.58l-4.8,86.8-9.75,9.11H607.21ZM626.07,342.8c1-.64,1.44-1.28,1.44-2.08l1.76-88.56q0-1-1.92-1h-7.19c-.48,0-1.44.48-1.44,1v90.48l1.44,1Z" transform="translate(-149.22 -198.81)"/><path class="q" d="M654.37,240.65h21.26c6.55,0,15.67,3.52,15.67,9.91v32.13L684.74,296a13.91,13.91,0,0,1,9.75,13.11l-3.2,40.28c0,4.64-13.43,4.8-15.19,4.8H654.37Zm23.5,50c.32,0,.64-.16,1.12-.64.16-.16.16-.32.32-.8l1.44-38.2c0-.48-.8-.64-2.24-.64l-14.07.64v38.36c0,.8.64,1.28,1.92,1.28Zm3,44.92V302.83c0-.48,0-.8-.64-1l-12.15-1.6a2.53,2.53,0,0,0-1.76,1v43.48l1.76.48C675.79,342,680.9,340.56,680.9,335.6Z" transform="translate(-149.22 -198.81)"/></svg>